<?xml version="1.0" encoding="UTF-8" standalone="no"?>
<!-- Created with Inkscape (http://www.inkscape.org/) -->

<svg
   width="64"
   height="64"
   viewBox="0 0 16.933333 16.933333"
   version="1.1"
   id="svg5"
   xmlns="http://www.w3.org/2000/svg"
   xmlns:svg="http://www.w3.org/2000/svg">
  <defs
     id="defs2" />
  <g
     id="layer1">
    <path
       id="path165"
       style="fill:#000000;stroke:none;stroke-width:0.668039;stroke-linecap:round"
       d="M 13.777441,2.5261214 5.7746757,3.527865 A 0.29976725,0.29976725 131.43256 0 0 5.5121412,3.825311 v 1.0212455 5.4769505 c 0,0.146125 -0.1111521,0.221743 -0.2537701,0.190444 -0.050148,-0.01101 -0.100706,-0.02001 -0.1515568,-0.027 -0.1446492,-0.01988 -0.3828585,-0.01993 -0.5275375,-2.29e-4 -0.868472,0.118242 -1.5558675,0.812265 -1.6721811,1.688667 -0.019216,0.144789 -0.019215,0.382961 -8.9e-6,0.527712 0.1162844,0.87641 0.803659,1.570452 1.6721201,1.688724 0.1447168,0.01971 0.3829529,0.01971 0.5276319,10e-6 0.868471,-0.118241 1.5558659,-0.812264 1.6721807,-1.688664 0.019216,-0.144789 0.017376,-0.382349 0.017376,-0.528474 V 5.2151204 A 0.29978256,0.29978256 131.43111 0 1 7.0589284,4.9176611 L 12.493188,4.2371496 a 0.23351705,0.23351705 41.431112 0 1 0.262533,0.2317073 v 5.1271137 c 0,0.1461253 -0.111152,0.2217434 -0.25377,0.1904442 -0.05015,-0.011005 -0.100706,-0.020013 -0.151556,-0.027001 -0.14465,-0.019879 -0.382859,-0.019926 -0.527538,-2.284e-4 -0.868472,0.118241 -1.555867,0.8122639 -1.672181,1.6886649 -0.01922,0.144789 -0.01922,0.382961 -1e-5,0.527712 0.116284,0.876411 0.803659,1.570454 1.672121,1.688726 0.144717,0.01971 0.382953,0.01971 0.527632,10e-6 0.868472,-0.118241 1.555867,-0.812265 1.672181,-1.688666 0.01922,-0.144789 0.01738,-0.382349 0.01738,-0.528474 l 0,-7.1389039 0,-1.5504121 A 0.23352898,0.23352898 41.432565 0 0 13.777441,2.5261214 Z" />
  </g>
</svg>
