<?xml version="1.0" encoding="UTF-8" standalone="no"?>
<!-- Created with Inkscape (http://www.inkscape.org/) -->

<svg
   width="64"
   height="64"
   viewBox="0 0 16.933333 16.933333"
   version="1.1"
   id="svg5"
   xmlns="http://www.w3.org/2000/svg"
   xmlns:svg="http://www.w3.org/2000/svg">
  <defs
     id="defs2" />
  <g
     id="layer1">
    <g
       id="g874"
       transform="translate(2.2154551)">
      <path
         id="path705"
         style="stroke-width:0.942008;stroke-linecap:round"
         d="M 2.6458333,13.2875 V 3.645833 A 0.41421355,0.41421355 157.5 0 1 3.3529401,3.3529398 l 4.4066196,4.4066198 a 1.0000001,1.0000001 90 0 1 0,1.4142136 L 3.3529401,13.580393 A 0.41421354,0.41421354 22.499999 0 1 2.6458333,13.2875 Z" />
      <path
         id="rect453"
         style="fill:#000000;stroke-width:1.32226;stroke-linecap:round"
         d="m 8.8506519,3.2320684 a 0.90207642,0.90207642 0 0 0 -0.7921997,0.999939 v 8.4697666 a 1,1 0 0 0 0.9999384,0.999939 0.90207642,0.90207642 0 0 0 0.7921997,-0.999939 V 4.2320074 A 1,1 0 0 0 8.8506519,3.2320684 Z" />
    </g>
  </g>
</svg>
