<?xml version="1.0" encoding="UTF-8" standalone="no"?>
<!-- Created with Inkscape (http://www.inkscape.org/) -->

<svg
   width="64"
   height="64"
   viewBox="0 0 16.933333 16.933333"
   version="1.1"
   id="svg5"
   xmlns="http://www.w3.org/2000/svg"
   xmlns:svg="http://www.w3.org/2000/svg">
  <defs
     id="defs2" />
  <g
     id="layer1">
    <path
       id="path705"
       style="stroke-width:0.942008;stroke-linecap:round"
       d="M 2.6458333,13.2875 V 3.645833 A 0.41421355,0.41421355 157.5 0 1 3.3529401,3.3529398 l 4.4066196,4.4066198 a 1.0000001,1.0000001 90 0 1 0,1.4142136 L 3.3529401,13.580393 A 0.41421354,0.41421354 22.499999 0 1 2.6458333,13.2875 Z" />
    <path
       id="rect453"
       style="fill:#000000;stroke-width:1.32226;stroke-linecap:round"
       d="m 9.5415363,4.231844 v 8.469645 a 1,1 45 0 0 0.9999997,1 0.90207642,0.90207642 128.38411 0 0 0.792139,-1 V 4.231844 a 1,1 45 0 0 -1,-1 0.90207642,0.90207642 128.38411 0 0 -0.7921387,1 z m 2.9538247,0 v 8.469645 a 1,1 45 0 0 1,1 0.90207655,0.90207655 128.38412 0 0 0.792139,-1 V 4.231844 a 1,1 45 0 0 -1,-1 0.90207655,0.90207655 128.38412 0 0 -0.792139,1 z" />
  </g>
</svg>
